<?xml version="1.0" encoding="utf-8"?>
<!-- Svg Vector Icons : http://www.onlinewebfonts.com/icon -->
<!DOCTYPE svg PUBLIC "-//W3C//DTD SVG 1.1//EN" "http://www.w3.org/Graphics/SVG/1.1/DTD/svg11.dtd">
<svg version="1.1" xmlns="http://www.w3.org/2000/svg" xmlns:xlink="http://www.w3.org/1999/xlink" x="0px" y="0px" viewBox="0 0 1000 1000" enable-background="new 0 0 1000 1000" xml:space="preserve">
<metadata> Svg Vector Icons : http://www.onlinewebfonts.com/icon </metadata>
<g><g><g><path d="M525.3,989.5C241.2,989.5,10,758.3,10,474.1c0-196.8,109.6-373.6,285.9-461.4c7.9-3.9,17.5-2.4,23.7,3.8c6.2,6.2,7.9,15.8,4,23.7c-32.2,65.4-48.5,135.7-48.5,208.9c0,261.4,212.7,474.1,474.1,474.1c74,0,145-16.7,211-49.5c7.9-3.9,17.5-2.4,23.7,3.8c6.3,6.3,7.9,15.8,3.9,23.7C900.5,879,723.3,989.5,525.3,989.5z"/></g></g><g></g><g></g><g></g><g></g><g></g><g></g><g></g><g></g><g></g><g></g><g></g><g></g><g></g><g></g><g></g></g>
</svg>