<?xml version="1.0" encoding="utf-8"?>
<!-- Svg Vector Icons : http://www.onlinewebfonts.com/icon -->
<!DOCTYPE svg PUBLIC "-//W3C//DTD SVG 1.1//EN" "http://www.w3.org/Graphics/SVG/1.1/DTD/svg11.dtd">
<svg version="1.1" xmlns="http://www.w3.org/2000/svg" xmlns:xlink="http://www.w3.org/1999/xlink" x="0px" y="0px" viewBox="0 0 1000 1000" enable-background="new 0 0 1000 1000" xml:space="preserve">
<metadata> Svg Vector Icons : http://www.onlinewebfonts.com/icon </metadata>
<g><g><path d="M500,255c44.4,0,85.4,11,123,32.9c37.5,21.9,67.3,51.6,89.2,89.2C734,414.6,745,455.6,745,500s-11,85.4-32.9,123c-21.9,37.5-51.6,67.3-89.2,89.2C585.4,734,544.4,745,500,745s-85.4-11-123-32.9c-37.5-21.9-67.3-51.6-89.2-89.2C266,585.4,255,544.4,255,500s11-85.4,32.9-123c21.9-37.5,51.6-67.3,89.2-89.2C414.6,266,455.6,255,500,255z M240.3,718.8c11.3,0,20.9,4,28.9,12.1c8,8.1,12,17.8,12,29c0,11.1-4,20.6-12.1,28.7l-57.7,57.7c-8.1,8.1-17.7,12.1-28.7,12.1c-11.3,0-20.9-4-28.9-12c-8-8-12-17.6-12-28.9c0-11.5,3.9-21.2,11.8-29l57.7-57.7C219.4,722.9,229.1,718.8,240.3,718.8L240.3,718.8z M500,826.7c11.3,0,20.9,4,28.9,12c8,8,12,17.6,12,28.9v81.7c0,11.3-4,20.9-12,28.9c-8,8-17.6,12-28.9,12c-11.3,0-20.9-4-28.9-12c-8-8-12-17.6-12-28.9v-81.7c0-11.3,4-20.9,12-28.9C479.1,830.7,488.7,826.7,500,826.7z M50.8,459.2h81.7c11.3,0,20.9,4,28.9,12c8,8,12,17.6,12,28.9c0,11.3-4,20.9-12,28.9c-8,8-17.6,12-28.9,12H50.8c-11.3,0-20.9-4-28.9-12c-8-8-12-17.6-12-28.9c0-11.3,4-20.9,12-28.9C29.9,463.2,39.6,459.2,50.8,459.2z M500,336.7c-45.1,0-83.6,16-115.5,47.9c-31.9,31.9-47.9,70.4-47.9,115.5s16,83.6,47.9,115.5c31.9,31.9,70.4,47.9,115.5,47.9s83.6-16,115.5-47.9c31.9-31.9,47.9-70.4,47.9-115.5s-16-83.6-47.9-115.5C583.6,352.6,545.1,336.7,500,336.7z M760,718.8c11.1,0,20.6,4,28.7,12.1l57.7,57.7c8.1,8.1,12.1,17.8,12.1,29c0,11.1-4,20.6-12.1,28.7s-17.7,12.1-28.7,12.1c-11.3,0-20.9-4-29-12.1L731,788.7c-7.9-7.9-11.8-17.4-11.8-28.7c0-11.3,4-20.9,12-29S748.7,718.8,760,718.8L760,718.8z M182.6,141.4c11.1,0,20.6,4,28.7,12.1l57.7,57.7c8.1,8.1,12.1,17.7,12.1,28.7c0,11.3-4,20.9-12,28.9c-8,8-17.6,12-28.9,12c-11.5,0-21.2-3.9-29-11.8l-57.7-57.7c-7.9-7.9-11.8-17.5-11.8-29c0-11.3,4-20.9,12-28.9C161.7,145.4,171.3,141.4,182.6,141.4L182.6,141.4z M500,10c11.3,0,20.9,4,28.9,12c8,8,12,17.6,12,28.9v81.7c0,11.3-4,20.9-12,28.9c-8,8-17.6,12-28.9,12c-11.3,0-20.9-4-28.9-12c-8-8-12-17.6-12-28.9V50.8c0-11.3,4-20.9,12-28.9C479.1,14,488.7,10,500,10z M867.5,459.2h81.7c11.3,0,20.9,4,28.9,12c8,8,12,17.6,12,28.9c0,11.3-4,20.9-12,28.9c-8,8-17.6,12-28.9,12h-81.7c-11.3,0-20.9-4-28.9-12c-8-8-12-17.6-12-28.9c0-11.3,4-20.9,12-28.9C846.6,463.2,856.2,459.2,867.5,459.2z M817.7,141.4c11.1,0,20.6,4,28.7,12.1s12.1,17.7,12.1,28.7c0,11.3-4,20.9-12.1,29L788.7,269c-7.9,7.9-17.4,11.8-28.7,11.8c-11.7,0-21.4-3.9-29.2-11.6c-7.8-7.8-11.6-17.5-11.6-29.2c0-11.3,3.9-20.8,11.8-28.7l57.7-57.7C796.8,145.5,806.5,141.4,817.7,141.4L817.7,141.4z"/></g></g>
</svg>