<?xml version="1.0" encoding="UTF-8" standalone="no"?>
<!-- Created with Inkscape (http://www.inkscape.org/) -->

<svg
   width="210mm"
   height="297mm"
   viewBox="0 0 210 297"
   version="1.1"
   id="svg5"
   inkscape:version="1.2 (dc2aedaf03, 2022-05-15)"
   sodipodi:docname="Logo Votsu.svg"
   xmlns:inkscape="http://www.inkscape.org/namespaces/inkscape"
   xmlns:sodipodi="http://sodipodi.sourceforge.net/DTD/sodipodi-0.dtd"
   xmlns="http://www.w3.org/2000/svg"
   xmlns:svg="http://www.w3.org/2000/svg">
  <sodipodi:namedview
     id="namedview7"
     pagecolor="#ffffff"
     bordercolor="#000000"
     borderopacity="0.25"
     inkscape:showpageshadow="2"
     inkscape:pageopacity="0.0"
     inkscape:pagecheckerboard="0"
     inkscape:deskcolor="#d1d1d1"
     inkscape:document-units="mm"
     showgrid="false"
     inkscape:zoom="0.79180044"
     inkscape:cx="596.1098"
     inkscape:cy="652.31083"
     inkscape:window-width="1920"
     inkscape:window-height="991"
     inkscape:window-x="-9"
     inkscape:window-y="-9"
     inkscape:window-maximized="1"
     inkscape:current-layer="layer1" />
  <defs
     id="defs2" />
  <g
     inkscape:label="Layer 1"
     inkscape:groupmode="layer"
     id="layer1">
    <path
       id="path350"
       style="fill:#008000;fill-opacity:1;stroke-width:2.06912"
       d="m 131.37057,110.06041 a 33.830869,33.830869 0 0 0 -20.49722,6.94286 v 27.92909 a 22.224655,22.224655 0 0 1 0.42026,0.0313 22.224655,22.224655 0 0 1 0.6304,0.0626 22.224655,22.224655 0 0 1 0.63047,0.0805 22.224655,22.224655 0 0 1 0.6264,0.10088 22.224655,22.224655 0 0 1 0.62641,0.1173 22.224655,22.224655 0 0 1 0.61827,0.13295 22.224655,22.224655 0 0 1 0.61828,0.15328 22.224655,22.224655 0 0 1 0.61021,0.1697 22.224655,22.224655 0 0 1 0.60623,0.19003 22.224655,22.224655 0 0 1 0.60217,0.20176 22.224655,22.224655 0 0 1 0.59402,0.2221 22.224655,22.224655 0 0 1 0.58598,0.23852 22.224655,22.224655 0 0 1 0.58191,0.25494 22.224655,22.224655 0 0 1 0.57385,0.27449 22.224655,22.224655 0 0 1 0.5658,0.28701 22.224655,22.224655 0 0 1 0.55766,0.30343 22.224655,22.224655 0 0 1 0.54555,0.31906 22.224655,22.224655 0 0 1 0.54155,0.33549 22.224655,22.224655 0 0 1 0.52944,0.35192 22.224655,22.224655 0 0 1 0.51731,0.36755 22.224655,22.224655 0 0 1 0.50918,0.38007 22.224655,22.224655 0 0 1 0.49706,0.39649 22.224655,22.224655 0 0 1 0.48493,0.40822 22.224655,22.224655 0 0 1 0.47282,0.41995 22.224655,22.224655 0 0 1 0.46069,0.43637 22.224655,22.224655 0 0 1 0.44857,0.44888 22.224655,22.224655 0 0 1 0.43646,0.46062 22.224655,22.224655 0 0 1 0.42432,0.47704 22.224655,22.224655 0 0 1 0.40815,0.48486 22.224655,22.224655 0 0 1 0.39203,0.49737 22.224655,22.224655 0 0 1 0.3839,0.50519 22.224655,22.224655 0 0 1 0.36372,0.52161 22.224655,22.224655 0 0 1 0.3516,0.52944 22.224655,22.224655 0 0 1 0.33541,0.53725 22.224655,22.224655 0 0 1 0.31922,0.54977 22.224655,22.224655 0 0 1 0.30312,0.55367 22.224655,22.224655 0 0 1 0.29099,0.56541 22.224655,22.224655 0 0 1 0.27074,0.57401 22.224655,22.224655 0 0 1 0.25463,0.58183 22.224655,22.224655 0 0 1 0.23844,0.58965 22.224655,22.224655 0 0 1 0.22225,0.59434 22.224655,22.224655 0 0 1 0.20607,0.59826 22.224655,22.224655 0 0 1 0.18589,0.60998 22.224655,22.224655 0 0 1 0.1697,0.60998 22.224655,22.224655 0 0 1 0.15359,0.61468 22.224655,22.224655 0 0 1 0.13333,0.62249 22.224655,22.224655 0 0 1 0.11723,0.6225 22.224655,22.224655 0 0 1 0.10104,0.6264 22.224655,22.224655 0 0 1 0.0808,0.63032 22.224655,22.224655 0 0 1 0.0649,0.63031 22.224655,22.224655 0 0 1 0.0446,0.63423 22.224655,22.224655 0 0 1 0.0125,0.27918 h 25.25376 a 33.830869,33.830869 0 0 0 8.35327,-22.22277 33.830869,33.830869 0 0 0 -33.8293,-33.83333 z" />
    <path
       id="path347"
       style="fill:#008000;stroke-width:2.06912"
       d="m 86.767299,110.06143 a 33.830869,33.830869 0 0 0 -33.829298,33.83333 33.830869,33.830869 0 0 0 8.353264,22.22277 h 25.916524 a 22.224655,22.224655 0 0 1 0.0364,-0.84459 22.224655,22.224655 0 0 1 0.22631,-1.8226 22.224655,22.224655 0 0 1 0.37583,-1.79835 22.224655,22.224655 0 0 1 0.52536,-1.76199 22.224655,22.224655 0 0 1 0.66681,-1.70944 22.224655,22.224655 0 0 1 0.80825,-1.6529 22.224655,22.224655 0 0 1 0.94161,-1.5761 22.224655,22.224655 0 0 1 1.06689,-1.49524 22.224655,22.224655 0 0 1 1.18409,-1.40233 22.224655,22.224655 0 0 1 1.30128,-1.29723 22.224655,22.224655 0 0 1 1.40231,-1.18814 22.224655,22.224655 0 0 1 1.49526,-1.06685 22.224655,22.224655 0 0 1 1.57609,-0.94164 22.224655,22.224655 0 0 1 1.648831,-0.80416 22.224655,22.224655 0 0 1 1.71349,-0.6709 22.224655,22.224655 0 0 1 1.75795,-0.5213 22.224655,22.224655 0 0 1 1.79835,-0.37991 22.224655,22.224655 0 0 1 1.53164,-0.18988 v -27.9897 a 33.830869,33.830869 0 0 0 -20.497241,-6.94285 z" />
    <path
       id="path330"
       style="fill:#008000;fill-opacity:1;stroke-width:2.06912"
       d="M 87.203749,167.99746 H 61.291265 a 33.830869,33.830869 0 0 0 -8.353264,22.22285 33.830869,33.830869 0 0 0 33.829298,33.83333 33.830869,33.830869 0 0 0 20.497221,-6.94286 v -27.88865 a 22.224655,22.224655 0 0 1 -1.53164,-0.19395 22.224655,22.224655 0 0 1 -1.79835,-0.37615 22.224655,22.224655 0 0 1 -1.75795,-0.52553 22.224655,22.224655 0 0 1 -1.71349,-0.66707 22.224655,22.224655 0 0 1 -1.648831,-0.80424 22.224655,22.224655 0 0 1 -1.57609,-0.94164 22.224655,22.224655 0 0 1 -1.49526,-1.06684 22.224655,22.224655 0 0 1 -1.40231,-1.18814 22.224655,22.224655 0 0 1 -1.30128,-1.29723 22.224655,22.224655 0 0 1 -1.18409,-1.40234 22.224655,22.224655 0 0 1 -1.06689,-1.49524 22.224655,22.224655 0 0 1 -0.94161,-1.58017 22.224655,22.224655 0 0 1 -0.80825,-1.64883 22.224655,22.224655 0 0 1 -0.66684,-1.70943 22.224655,22.224655 0 0 1 -0.52537,-1.762 22.224655,22.224655 0 0 1 -0.37584,-1.79835 22.224655,22.224655 0 0 1 -0.22632,-1.8226 22.224655,22.224655 0 0 1 -0.0407,-0.94563 z" />
    <path
       id="path332"
       style="fill:#008000;fill-opacity:1;stroke-width:2.06912"
       d="m 110.87335,189.26991 v 27.84017 a 33.830869,33.830869 0 0 0 20.49722,6.94286 33.830869,33.830869 0 0 0 33.8293,-33.83333 33.830869,33.830869 0 0 0 -8.35327,-22.22286 h -25.26589 a 22.224655,22.224655 0 0 1 -0.0407,0.94563 22.224655,22.224655 0 0 1 -0.22632,1.8226 22.224655,22.224655 0 0 1 -0.37584,1.79835 22.224655,22.224655 0 0 1 -0.52537,1.762 22.224655,22.224655 0 0 1 -0.66683,1.70943 22.224655,22.224655 0 0 1 -0.80825,1.64883 22.224655,22.224655 0 0 1 -0.94161,1.58017 22.224655,22.224655 0 0 1 -1.06689,1.49524 22.224655,22.224655 0 0 1 -1.18408,1.40234 22.224655,22.224655 0 0 1 -1.30129,1.29723 22.224655,22.224655 0 0 1 -1.40232,1.18814 22.224655,22.224655 0 0 1 -1.49525,1.06684 22.224655,22.224655 0 0 1 -1.57609,0.94164 22.224655,22.224655 0 0 1 -1.64883,0.80424 22.224655,22.224655 0 0 1 -1.71349,0.66707 22.224655,22.224655 0 0 1 -1.76199,0.52553 22.224655,22.224655 0 0 1 -1.79431,0.37615 22.224655,22.224655 0 0 1 -1.82261,0.2307 22.224655,22.224655 0 0 1 -0.35566,0.0156 z" />
  </g>
</svg>
